<svg id="Component_8_1" data-name="Component 8 – 1" xmlns="http://www.w3.org/2000/svg" width="499.761" height="320.171" viewBox="0 0 499.761 320.171">
  <circle id="Ellipse_1" data-name="Ellipse 1" cx="21.269" cy="21.269" r="21.269" transform="translate(139.243 80.251) rotate(-45)" fill="#ca0288"/>
  <path id="Path_10447" data-name="Path 10447" d="M909.994,813.026l-33.465,4.541,11.573,7.891,1.884,14.084,21.4-25.742Z" transform="translate(-809.719 -746.235)" fill="#ca0288"/>
  <g id="waman" transform="translate(91.466 119.491)">
    <path id="Path_10448" data-name="Path 10448" d="M2313.777,1922.36a23.1,23.1,0,0,1,.946-8.055c1.27-3.555,5.951-7.506,8.288-8.95s7.726-4.726,9.66-6.133,5.169-4.753,6.9-5.336a5.7,5.7,0,0,1,4.6.443c1.054.653,1.158,1.768.349,3.978s-4.726,7.49-4.726,7.49l-.44,1.989a40.355,40.355,0,0,0,6.535-2.03,31.29,31.29,0,0,1,3.065-1.365s4.874-5.441,5.981-6.318a4.256,4.256,0,0,1,3.175-.9c.594.165,1.465.7,1.157,2.319,2.35-1,2.625-1.99,3.839-1.259s2.764,1.353,1.506,3.666c2.855.523,3.538-.677,3.692,1.631a8.6,8.6,0,0,1-.84,5.015c1.39,3.008-.973,6.514-3.631,8.875s-8.159,4.022-11.852,4.576-9.51,1.1-10.884,2.138-3.183,4.946-3.183,4.946Z" transform="translate(-2165.994 -1816.674)" fill="#fff"/>
    <path id="Path_10449" data-name="Path 10449" d="M1173.087,1266.727c6.715-1.771,12.079-2.723,20.107-1.4s14.616,7.712,17.414,11.529a25.868,25.868,0,0,1,4.8,13.273c.285,4.56.386,7.878-1.541,13.335s-2.978,7.656-2.707,10.42,2.689,12.713,3.722,16.5,1.985,6.658.9,11.615-2.971,12.987-11.685,17.193-67.124,25.386-73.031,25.091-5.243.68-7.864-4.2-4.263-13.3-2.107-19.437,4.071-11.958,8.793-18.736,8.353-15.564,8.547-19.915-.532-17-.443-21.583,1.832-17.625,5.687-22.411,14.276-9.9,17.747-10.933S1170.133,1265.62,1173.087,1266.727Z" transform="translate(-1115.541 -1263.227)" fill="#fbad2b"/>
    <path id="Path_10450" data-name="Path 10450" d="M1430.08,1340.244c1.082-4.957.131-7.824-.9-11.615s-3.451-13.74-3.722-16.5.78-4.963,2.707-10.42,1.826-8.775,1.541-13.334a25.873,25.873,0,0,0-4.8-13.273c-2.8-3.817-9.386-10.2-17.414-11.529s-13.392-.373-20.107,1.4c-2.954-1.107-8.187-.687-11.658.346a50.94,50.94,0,0,0-8.993,4.212,56.305,56.305,0,0,1,12.242-6.229c3.471-1.033,8.7-1.453,11.658-.346,6.715-1.771,12.079-2.723,20.107-1.4s14.616,7.712,17.414,11.529a25.874,25.874,0,0,1,4.8,13.272c.285,4.56.386,7.879-1.542,13.335s-2.978,7.656-2.707,10.419,2.688,12.713,3.722,16.5,1.985,6.658.9,11.615c-1.072,4.909-2.939,12.828-11.437,17.067C1427.659,1350.876,1429.162,1344.453,1430.08,1340.244Z" transform="translate(-1332.585 -1259.904)" fill="#fff"/>
    <g id="Group_1689" data-name="Group 1689" transform="translate(4.22 1.125)">
      <path id="Path_10451" data-name="Path 10451" d="M1123.376,1380.831a.753.753,0,0,1-.587-.279c-5.3-6.523-6.776-13.968-4.512-22.76,1.934-7.509,6.283-14.808,10.119-21.248,3.381-5.674,6.3-10.574,6.911-14.39.9-5.636.58-11.407.27-16.989-.461-8.289-.939-16.86,2.481-25.4a23.893,23.893,0,0,1,6.742-9.179,35.86,35.86,0,0,1,9.467-5.771c6.866-2.915,13.33-3.587,16.167-2.745a.756.756,0,0,1-.43,1.449c-2.55-.758-8.912.04-15.146,2.687-4.384,1.861-12.214,6.171-15.4,14.121-3.3,8.231-2.827,16.632-2.375,24.757.315,5.661.641,11.515-.286,17.311-.656,4.1-3.644,9.117-7.1,14.924-7.555,12.681-16.959,28.464-5.733,42.281a.755.755,0,0,1-.586,1.232Z" transform="translate(-1117.252 -1261.732)" fill="#202020"/>
    </g>
    <path id="Path_10452" data-name="Path 10452" d="M1231.128,2009.5l27.515,8.3s-6.424,24.273-8.674,29.866-5.647,17.6-9.044,24.217-8.292,13.283-14.41,15.262-15.219-.148-18.127-2.959-19.5-5.714-19.5-5.714-5.317,22.78-5.169,25.436c-1.132.64-81.622.354-81.622.354s-12.849-.787-16.319-11.818c-.812-3.911.167-24.408,1.093-29.15s4.542-26.1,6.118-30.209,3.941-15.316,7.176-20.467,9.006-12.068,13.462-14.521,9.915-4.818,9.915-4.818a67.842,67.842,0,0,0,8.241,4.579,52.144,52.144,0,0,0,17.575,3.841c9.353.514,14.588-1.572,16.169-2.177s7.666-3.9,9.059-5.5c3.94,1.345,10.771,7.95,11.694,8.872a78.708,78.708,0,0,1,10.246,12.89c4.02,6.517,10.605,18.613,10.605,18.613l4.349,8.161,1.726,3.349Z" transform="translate(-1085.068 -1904.407)" fill="#25265b"/>
    <path id="Path_10453" data-name="Path 10453" d="M1935.227,2304.437c2.658,4.667,5.083,12.548,5.938,16.39s.814,11.7-.168,15.428-3.851,11.586-3.851,11.586l-2.467-.591s1.8-7.161,2.947-11.55a40.526,40.526,0,0,0,.221-18.264A112.349,112.349,0,0,1,1935.227,2304.437Z" transform="translate(-1832.405 -2178.233)" fill="#fff"/>
    <path id="Path_10454" data-name="Path 10454" d="M1453.213,1397.45s1.8,5.843,2.37,7.8c.621,2.149,2.368,8.629,2.368,8.629s1.653,7.823,2.064,10.627-.385,6.74-2.23,11.677c-.9,2.413-3.914,5.681-7.8,7.264-4.009,1.633-4.4,2.386-4.4,2.386s-.116,10.639.857,12.007,2.013,2.594,3.347,2.8a67.686,67.686,0,0,1,7.118,2.718s1.4,1,1.5,1.458-5.766,5.376-15.147,6.254-15.94.619-19.983-.458-8.619-2.458-11.2-4.081-3.045-2.914-3.045-2.914,8.456-2.458,9.627-4.328a15.176,15.176,0,0,0,1.8-6.306c.117-1.652.568-9.993.458-12.1s.135-16.932.135-16.932l.665-6.229s7.372-4.792,8.474-6.4,7.046-7.954,8.111-9.546,5.59-8.959,5.548-10.424l.691.274a8.314,8.314,0,0,0,3.308,3.427A41.912,41.912,0,0,0,1453.213,1397.45Z" transform="translate(-1369.809 -1374.686)" fill="#fff"/>
    <g id="Group_1690" data-name="Group 1690" transform="translate(64.792 21.838)">
      <path id="Path_10455" data-name="Path 10455" d="M1627.574,1483.291a33.943,33.943,0,0,1-4.715-.326.756.756,0,0,1,.21-1.5,32.216,32.216,0,0,0,10.5-.25c12.7-2.575,14.293-12.707,13.4-20.753-.658-5.913-4.418-19.928-6.706-24.993a.756.756,0,1,1,1.377-.622c2.381,5.271,6.147,19.3,6.831,25.448.628,5.643-.121,10.4-2.224,14.13-2.432,4.315-6.6,7.1-12.376,8.271A32.5,32.5,0,0,1,1627.574,1483.291Z" transform="translate(-1622.208 -1434.406)" fill="#202020"/>
    </g>
    <path id="Path_10456" data-name="Path 10456" d="M1760.117,1548.433c.261,1.279,1.081,2.191,1.832,2.038s1.148-1.314.887-2.592-1.081-2.191-1.832-2.038S1759.856,1547.155,1760.117,1548.433Z" transform="translate(-1678.711 -1510.621)" fill="#202020"/>
    <path id="Path_10457" data-name="Path 10457" d="M1608.341,1586.364c.261,1.279-.136,2.439-.887,2.592s-1.571-.76-1.832-2.038.136-2.439.887-2.592S1608.08,1585.085,1608.341,1586.364Z" transform="translate(-1542.75 -1544.489)" fill="#202020"/>
    <g id="Group_1691" data-name="Group 1691" transform="translate(99.039 184.728)">
      <path id="Path_10458" data-name="Path 10458" d="M1908.458,2808.267h-.044a.756.756,0,0,1-.711-.8,89.161,89.161,0,0,1,2.285-14.584.756.756,0,0,1,1.464.374,87.471,87.471,0,0,0-2.241,14.3A.756.756,0,0,1,1908.458,2808.267Z" transform="translate(-1907.701 -2792.314)" fill="#202020"/>
    </g>
    <g id="Group_1692" data-name="Group 1692" transform="translate(54.987 32.362)">
      <path id="Path_10459" data-name="Path 10459" d="M1541.227,1527.7a.756.756,0,0,1-.534-1.29,14.632,14.632,0,0,1,12.564-4.071.756.756,0,0,1-.268,1.487,13.263,13.263,0,0,0-11.226,3.651A.753.753,0,0,1,1541.227,1527.7Z" transform="translate(-1540.471 -1522.139)" fill="#202020"/>
    </g>
    <g id="Group_1693" data-name="Group 1693" transform="translate(73.713 28.169)">
      <path id="Path_10460" data-name="Path 10460" d="M1700.83,1509.165a.756.756,0,0,1-.1-1.5c.146-.02.312-.033.488-.048.579-.047,1.549-.126,1.862-.537a1.032,1.032,0,0,0,.092-.817c-.113-.6-1.063-1.207-1.9-1.744a10.368,10.368,0,0,1-1.57-1.146l-.073-.07a8.844,8.844,0,0,1-3.038-6.606c-.115-4.287.854-6.238,3.989-8.032,2.928-1.676,8.073-1.84,10.86-.94a.756.756,0,1,1-.465,1.438c-2.43-.785-7.173-.6-9.644.813-2.367,1.354-3.338,2.582-3.229,6.68a7.367,7.367,0,0,0,2.573,5.555l.075.072a9.268,9.268,0,0,0,1.338.963c1.1.7,2.337,1.5,2.572,2.735a2.446,2.446,0,0,1-.375,2.014,3.938,3.938,0,0,1-2.941,1.128c-.162.013-.3.025-.408.039A.763.763,0,0,1,1700.83,1509.165Z" transform="translate(-1696.578 -1487.18)" fill="#202020"/>
    </g>
    <path id="Path_10461" data-name="Path 10461" d="M1791.473,2597.06a127.136,127.136,0,0,1,15.856-6.6,49.712,49.712,0,0,1,25.034-4.235c.995.089,5.34,1.56,5.58,3.568.5,4.17-17.672,1.2-16.522,3.729,4.757.5,9.9,1.208,11.79,2.26s3.16,1.544,4.984,2.639c1.51.906,3.185,3.592,2.116,4.5a4.8,4.8,0,0,1-4.664.9c2.4,3.6-3.1,4.047-4.32,3.512a1.853,1.853,0,0,1,.406,2.712c-.812,1.218-3.292,1.228-4.276,1.02-2.558-.539-8.212-1.763-10.747-1.385s-5.5,2.919-7.864,3.73-3.926,1.929-6.155,2.148a62.261,62.261,0,0,1-9.272-.116C1793.465,2615.244,1791.473,2597.06,1791.473,2597.06Z" transform="translate(-1706.376 -2426.042)" fill="#fff"/>
    <g id="Group_1694" data-name="Group 1694" transform="translate(86.768 175.342)">
      <path id="Path_10462" data-name="Path 10462" d="M1808.834,2729c-1.466,0-2.565-.022-2.685-.025a.756.756,0,0,1,.032-1.511c.079,0,7.939.16,10.139-.369,3.6-.864,7.312-3.06,9.771-4.513.74-.437,1.379-.814,1.891-1.084,1.577-.83,4.2-.408,7.512.127a55.544,55.544,0,0,0,5.984.74c1.253.063,1.654-.282,1.985-.672.512-.6.481-.986.412-1.223-.484-1.684-5.063-3.127-6.787-3.67-.253-.08-.477-.15-.664-.212-3.548-1.169-6.022-1.468-11.3-.149a.756.756,0,0,1-.366-1.466c5.607-1.4,8.382-1.058,12.14.18.181.06.4.128.645.206,2.473.779,7.077,2.229,7.785,4.693a2.741,2.741,0,0,1-.715,2.62,3.5,3.5,0,0,1-3.21,1.2,56.794,56.794,0,0,1-6.15-.757c-2.8-.451-5.437-.878-6.568-.282-.479.252-1.1.621-1.826,1.049-2.537,1.5-6.37,3.764-10.187,4.681A48.01,48.01,0,0,1,1808.834,2729Z" transform="translate(-1805.41 -2714.069)" fill="#25265b"/>
    </g>
    <g id="Group_1695" data-name="Group 1695" transform="translate(0 54.277)">
      <path id="Path_10463" data-name="Path 10463" d="M1104.441,1849.954q-1.061,0-2.06-.023c-7.187-.164-12.183-1.2-14.85-3.076-3.69-2.6-5.474-8.552-5.455-18.2a168.558,168.558,0,0,1,2.338-24c2.37-15.658,6.21-31.442,10.023-41.193,3.281-8.392,7.811-14.418,14.253-18.966,5.983-4.223,12.949-6.69,20.159-9.048a4.765,4.765,0,0,0,3.23-3.915c1.079-8.544.533-18.32-.064-25.882a.756.756,0,1,1,1.506-.119c.6,7.634,1.153,17.51.057,26.19a6.282,6.282,0,0,1-4.259,5.162c-15.353,5.022-26.74,9.908-33.474,27.128-3.775,9.653-7.582,25.313-9.936,40.868a167.335,167.335,0,0,0-2.32,23.778c-.018,9,1.6,14.706,4.813,16.966,4.457,3.137,16.824,3.69,34.823,1.558l45.552-5.735-2.058-20.895-57.163,1.944a.755.755,0,1,1-.051-1.51l58.58-1.992,2.341,23.769-47.017,5.919A166.045,166.045,0,0,1,1104.441,1849.954Z" transform="translate(-1082.076 -1704.83)" fill="#fff"/>
    </g>
    <g id="Group_1696" data-name="Group 1696" transform="translate(33.687 148.854)">
      <path id="Path_10464" data-name="Path 10464" d="M1363.657,2515.741a.759.759,0,0,1-.747-.873l3.3-20.972a.755.755,0,1,1,1.493.235l-3.3,20.972A.756.756,0,0,1,1363.657,2515.741Z" transform="translate(-1362.9 -2493.257)" fill="#fff"/>
    </g>
    <g id="Group_1697" data-name="Group 1697" transform="translate(106.285 170.202)">
      <path id="Path_10465" data-name="Path 10465" d="M1989.525,2682.939a6.614,6.614,0,0,1-2.572-.6.756.756,0,1,1,.591-1.391c1.184.5,2.766.869,3.577-.247.305-.419.343-.553.241-.841a9.181,9.181,0,0,0-2.284-2.7c-1.394-1.3-4.623-2.641-8.428-3.495a33.394,33.394,0,0,0-11.679-.681.756.756,0,1,1-.226-1.494c7.638-1.154,18.132,1.546,21.364,4.566,2.89,2.7,3.391,3.941,2.233,5.532A3.355,3.355,0,0,1,1989.525,2682.939Z" transform="translate(-1968.103 -2671.224)" fill="#25265b"/>
    </g>
    <g id="Group_1698" data-name="Group 1698" transform="translate(51.153 56.986)">
      <path id="Path_10466" data-name="Path 10466" d="M1526.683,1736.435c-7.56,0-13.955-2.768-18.006-7.794a.756.756,0,0,1,1.177-.948c3.759,4.663,9.736,7.231,16.83,7.231a.756.756,0,1,1,0,1.511Z" transform="translate(-1508.509 -1727.411)" fill="#202020"/>
    </g>
    <ellipse id="Ellipse_2" data-name="Ellipse 2" cx="3.804" cy="2.225" rx="3.804" ry="2.225" transform="translate(69.179 62.578) rotate(-1.468)" fill="#202020"/>
    <path id="Path_10467" data-name="Path 10467" d="M1431.967,1296.922c-1.607-9.565-3.352-23.394,7.939-34.106,3.255-3.087,7.1-4.382,13.309-5.6a24.513,24.513,0,0,0-4.447-.262c-1.831.079-4.3-.2-5.87.116a18.374,18.374,0,0,0-9.052,4.383c-9.388,8.634-9.345,21.858-5.648,35.981Z" transform="translate(-1384.64 -1256.37)" fill="#202020"/>
    <ellipse id="Ellipse_3" data-name="Ellipse 3" cx="7.603" cy="10.208" rx="7.603" ry="10.208" transform="translate(36.502 43.971) rotate(-24.69)" fill="#202020"/>
    <g id="Group_1699" data-name="Group 1699" transform="translate(167.675 79.307)">
      <path id="Path_10468" data-name="Path 10468" d="M2485.184,1925.857a14.162,14.162,0,0,1-4.806-.912.756.756,0,1,1,.507-1.423c4.693,1.671,7.437.53,11.591-1.2.81-.337,1.646-.685,2.564-1.041a17.174,17.174,0,0,0,3.952-4,10.641,10.641,0,0,1,3.56-3.378,3.758,3.758,0,0,1,3.845.228,2.457,2.457,0,0,1,.78,2.034.756.756,0,1,1-1.509-.085,1.1,1.1,0,0,0-.2-.754,2.282,2.282,0,0,0-2.251-.066,9.4,9.4,0,0,0-3.033,2.947,18.315,18.315,0,0,1-4.371,4.377l-.071.048-.079.03c-.932.36-1.785.715-2.61,1.058C2490.229,1924.895,2487.916,1925.857,2485.184,1925.857Z" transform="translate(-2479.876 -1913.483)" fill="#202020"/>
    </g>
    <g id="Group_1700" data-name="Group 1700" transform="translate(146.95 75.409)">
      <path id="Path_10469" data-name="Path 10469" d="M2307.86,1910.932a.791.791,0,0,1-.088-.005.756.756,0,0,1-.664-.838c.5-4.293,1.073-7.286,2.533-9.882,1.429-2.54,3.619-4.573,7.558-7.014.837-.519,1.618-1,2.351-1.452,5.625-3.469,8.448-5.211,12.935-9.109,2.065-1.794,4.362-2.138,6.144-.919a3.854,3.854,0,0,1,1.557,4.375c-1.788,4.991-5.711,9.289-7,10.7a.756.756,0,1,1-1.116-1.019c1.238-1.357,5.008-5.486,6.693-10.192a2.327,2.327,0,0,0-.987-2.618c-1.2-.818-2.764-.522-4.3.813-4.58,3.979-7.438,5.742-13.133,9.255-.732.452-1.512.932-2.348,1.451-7.126,4.417-8.405,7.333-9.387,15.786A.756.756,0,0,1,2307.86,1910.932Z" transform="translate(-2307.104 -1880.992)" fill="#202020"/>
    </g>
    <g id="Group_1701" data-name="Group 1701" transform="translate(170.756 90.165)">
      <path id="Path_10470" data-name="Path 10470" d="M2507.551,2026.74a.756.756,0,0,1-.688-1.066c.195-.432.361-.874.537-1.343a9.051,9.051,0,0,1,2.438-4.043c.713-.613,2.982-.97,8.382-1.7a61.648,61.648,0,0,0,8.763-1.532c5.832-2.854,8.9-7.065,9.306-8.2.777-2.188.106-2.833-.114-3.045-.562-.541-1.718-.368-3.435.514a20.878,20.878,0,0,0-3.741,2.892c-1.821,1.622-3.541,3.153-5.23,3.513a24.46,24.46,0,0,1-4.464.165c-3.943-.047-9.345-.11-12.615,1.763a.756.756,0,1,1-.751-1.311c3.628-2.078,9.268-2.012,13.385-1.964a24.774,24.774,0,0,0,4.132-.132c1.3-.276,2.945-1.744,4.54-3.163a21.817,21.817,0,0,1,4.055-3.108c.878-.45,3.548-1.822,5.173-.258,1.073,1.032,1.233,2.55.491,4.64-.558,1.57-3.876,6.032-10.1,9.067l-.069.029a58.829,58.829,0,0,1-9.121,1.625c-2.955.4-7,.943-7.6,1.352a7.778,7.778,0,0,0-2,3.422c-.177.47-.359.956-.574,1.432A.755.755,0,0,1,2507.551,2026.74Z" transform="translate(-2505.558 -2003.998)" fill="#202020"/>
    </g>
    <g id="Group_1702" data-name="Group 1702" transform="translate(182.865 83.906)">
      <path id="Path_10471" data-name="Path 10471" d="M2607.265,1963.117a.756.756,0,0,1-.227-1.477l.877-.275a27.855,27.855,0,0,0,5.353-2.005,42.634,42.634,0,0,0,4.124-3.566,31.587,31.587,0,0,1,3.82-3.269,4.042,4.042,0,0,1,5.382.72,4.6,4.6,0,0,1-.543,5.862.756.756,0,1,1-1.128-1.006c.758-.849,1.509-2.6.476-3.931a2.576,2.576,0,0,0-3.413-.348,33.222,33.222,0,0,0-3.565,3.078,43.045,43.045,0,0,1-4.314,3.717,27.375,27.375,0,0,1-5.74,2.191l-.874.274A.761.761,0,0,1,2607.265,1963.117Z" transform="translate(-2606.51 -1951.827)" fill="#202020"/>
    </g>
    <g id="Group_1703" data-name="Group 1703" transform="translate(181.186 80.214)">
      <path id="Path_10472" data-name="Path 10472" d="M2593.265,1932.472a.756.756,0,0,1-.2-1.484c1.39-.381,5.251-1.719,6.4-3.309a27.145,27.145,0,0,1,3.909-4.1c1.948-1.679,3.439-2.532,4.435-2.535h.012a3.869,3.869,0,0,1,3.045,1.387,3.521,3.521,0,0,1,.691,2.977.756.756,0,0,1-1.477-.32,1.988,1.988,0,0,0-.389-1.706,2.367,2.367,0,0,0-1.869-.826h-.008c-1.269,0-5.453,3.691-7.123,6.005s-6.661,3.728-7.226,3.883A.75.75,0,0,1,2593.265,1932.472Z" transform="translate(-2592.509 -1921.046)" fill="#202020"/>
    </g>
    <g id="Group_1706" data-name="Group 1706" transform="translate(68.568 54.713)">
      <path id="Path_10473" data-name="Path 10473" d="M1666.081,1722.97a5.685,5.685,0,0,1-5.18-3.153c-.7-1.407-.794-2.2-.194-2.644.759-.567,2.83-.105,5.95.22,2.278.237,5.537-.24,5.922,1.392C1672.91,1720.19,1670.3,1723.25,1666.081,1722.97Z" transform="translate(-1659.514 -1715.892)" fill="#202020"/>
      <path id="Path_10474" data-name="Path 10474" d="M1676.26,1738.249c1.4-1.8,5.926-2.395,6.905,1.216C1680.462,1740.357,1677.063,1739.254,1676.26,1738.249Z" transform="translate(-1673.552 -1733.421)" fill="#fff"/>
      <g id="Group_1704" data-name="Group 1704">
        <path id="Path_10475" data-name="Path 10475" d="M1660.775,1716.057q-.3,0-.611-.021h0a6.479,6.479,0,0,1-5.806-3.57c-.421-.842-1.3-2.6.03-3.587.823-.616,2.194-.445,4.464-.163.6.075,1.288.16,2.017.236.546.057,1.18.071,1.793.085,2.045.046,4.364.1,4.786,1.886a3.169,3.169,0,0,1-.917,2.631A7.5,7.5,0,0,1,1660.775,1716.057Zm-.511-1.528a6.177,6.177,0,0,0,5.113-1.95,1.912,1.912,0,0,0,.6-1.307c-.154-.651-2-.692-3.348-.722-.644-.014-1.309-.029-1.916-.093-.744-.077-1.436-.163-2.047-.239-1.423-.177-3.037-.377-3.373-.126-.274.2.144,1.154.417,1.7A4.943,4.943,0,0,0,1660.263,1714.529Z" transform="translate(-1653.682 -1708.462)" fill="#202020"/>
      </g>
      <g id="Group_1705" data-name="Group 1705" transform="translate(1.953 2.342)">
        <path id="Path_10476" data-name="Path 10476" d="M1677.9,1732.731a.756.756,0,0,1-.75-.676,2.63,2.63,0,0,0-2.123-2.468,3.537,3.537,0,0,0-3.663,1.281.756.756,0,1,1-1.289-.789,5.051,5.051,0,0,1,5.284-1.967,4.149,4.149,0,0,1,3.293,3.783.756.756,0,0,1-.672.831Q1677.937,1732.731,1677.9,1732.731Z" transform="translate(-1669.96 -1727.987)" fill="#202020"/>
      </g>
    </g>
    <g id="Group_1707" data-name="Group 1707" transform="translate(46.191 15.333)">
      <path id="Path_10477" data-name="Path 10477" d="M1467.9,1411.053a.756.756,0,0,1-.231-1.475c4.672-1.5,10.359-5.559,15.6-11.126s9.428-12,11.441-17.621a.992.992,0,0,1,1.71-.286c2.928,3.638,8.308,7.241,12.928,7.09a.756.756,0,0,1,.05,1.51c-4.816.155-10.312-3.285-13.577-6.969-4.673,12.024-17.649,25.607-27.692,28.839A.75.75,0,0,1,1467.9,1411.053Z" transform="translate(-1467.142 -1380.173)" fill="#202020"/>
    </g>
    <g id="Group_1708" data-name="Group 1708" transform="translate(62.732)">
      <path id="Path_10478" data-name="Path 10478" d="M1636.957,1344.688a.756.756,0,0,1-.554-1.269c9.153-9.888,5.911-21.53,3.305-30.884-1.19-4.274-2.219-7.965-1.984-10.976a28.776,28.776,0,0,1,2.151-8.149c1.872-4.966,3.809-10.1.778-20.251-4.649-15.564-21.289-21.64-34.693-18.523a.756.756,0,0,1-.342-1.472,33.667,33.667,0,0,1,21.235,2.213,28.53,28.53,0,0,1,9.231,6.643,27.2,27.2,0,0,1,6.016,10.706c3.177,10.638,1.058,16.257-.811,21.216a27.179,27.179,0,0,0-2.059,7.734c-.214,2.745.781,6.317,1.932,10.453,1.331,4.779,2.84,10.2,2.82,15.74a23.5,23.5,0,0,1-6.471,16.575A.753.753,0,0,1,1636.957,1344.688Z" transform="translate(-1605.034 -1252.353)" fill="#202020"/>
    </g>
  </g>
  <g id="laptop" transform="translate(279.296 178.275)">
    <path id="Path_10479" data-name="Path 10479" d="M2783.452,1856.086h21.729a5.71,5.71,0,0,0,5.465-3.786l32.73-97.579a5.487,5.487,0,0,0-5.465-7.074h-146.3a5.71,5.71,0,0,0-5.465,3.786l-32.73,97.579a5.488,5.488,0,0,0,5.465,7.075h124.569Z" transform="translate(-2652.515 -1747.016)" fill="#a7a7a7" opacity="0.27"/>
    <path id="Path_10480" data-name="Path 10480" d="M3083.594,1747.646H2937.3a5.71,5.71,0,0,0-5.465,3.786l-.82,2.446h141.922a5.487,5.487,0,0,1,5.465,7.075l-31.91,95.133h4.376c2.5,0,3.666-1.847,4.422-4.1l32.624-97.264C3089.084,1751.219,3087.473,1747.646,3083.594,1747.646Z" transform="translate(-2897.049 -1747.016)" fill="#fff"/>
    <g id="Group_1709" data-name="Group 1709" transform="translate(0 0)">
      <path id="Path_10481" data-name="Path 10481" d="M2800.562,1852.095h-21.729a.63.63,0,1,1,0-1.26h21.729a5.061,5.061,0,0,0,4.868-3.357l32.73-97.579a4.534,4.534,0,0,0-.639-4.132,5.2,5.2,0,0,0-4.229-2.113h-146.3a5.062,5.062,0,0,0-4.868,3.357l-32.729,97.579a4.533,4.533,0,0,0,.638,4.132,5.2,5.2,0,0,0,4.229,2.113h78.9a.63.63,0,1,1,0,1.26h-78.9a6.459,6.459,0,0,1-5.252-2.637,5.779,5.779,0,0,1-.81-5.268l32.73-97.579a6.319,6.319,0,0,1,6.062-4.216h146.3a6.459,6.459,0,0,1,5.252,2.637,5.78,5.78,0,0,1,.811,5.268l-32.73,97.579A6.319,6.319,0,0,1,2800.562,1852.095Z" transform="translate(-2647.896 -1742.395)" fill="#202020"/>
    </g>
    <path id="Path_10482" data-name="Path 10482" d="M2935.115,2331.638v-5.065a3.126,3.126,0,0,1,3.205-3.039c7.135,0,24.573-.033,35.664-.254,11.778-.234,14.875-9.551,11.945-24.22-2.26-11.317-8.519-45.36-8.519-45.36a1.821,1.821,0,0,1,1.86-2.1h41.452a1.862,1.862,0,0,1,1.859,1.475l11.166,59.452c1.885,10.035-6.264,19.247-17.027,19.247h-24.727Z" transform="translate(-2900.662 -2190.516)" fill="#fff"/>
    <g id="Group_1710" data-name="Group 1710" transform="translate(33.824 60.452)">
      <path id="Path_10483" data-name="Path 10483" d="M3012.1,2327.78h-24.727a.63.63,0,1,1,0-1.259H3012.1a16.936,16.936,0,0,0,13.117-6.036,15.118,15.118,0,0,0,3.291-12.465l-11.166-59.451a1.232,1.232,0,0,0-1.24-.962h-41.452a1.291,1.291,0,0,0-1,.456,1.078,1.078,0,0,0-.24.9c.063.343,6.285,34.169,8.518,45.353,1.9,9.531,1.2,16.445-2.1,20.551-2.283,2.842-5.8,4.329-10.446,4.422-11.119.221-28.654.251-35.676.254a2.5,2.5,0,0,0-2.576,2.409v5.065a.63.63,0,0,1-1.26,0v-5.065a3.76,3.76,0,0,1,3.835-3.669c7.019,0,24.544-.033,35.651-.254,4.258-.085,7.451-1.414,9.49-3.952,3.055-3.8,3.677-10.368,1.851-19.515-2.235-11.192-8.458-45.028-8.521-45.369a2.343,2.343,0,0,1,.509-1.934,2.544,2.544,0,0,1,1.969-.912H3016.1a2.491,2.491,0,0,1,2.479,1.989l11.166,59.452a16.376,16.376,0,0,1-3.56,13.5A18.192,18.192,0,0,1,3012.1,2327.78Z" transform="translate(-2929.864 -2246.347)" fill="#202020"/>
    </g>
  </g>
  <g id="leaf" transform="translate(19.729 215.634)">
    <path id="Path_10484" data-name="Path 10484" d="M520.531,2256.517c-12.752-3.351-25.79-33.212-29.6-45.423C504.856,2209.349,524.658,2234.524,520.531,2256.517Z" transform="translate(-490.105 -2192.154)" fill="#fff"/>
    <g id="Group_1711" data-name="Group 1711" transform="translate(0 18.222)">
      <path id="Path_10485" data-name="Path 10485" d="M514.689,2253.41l-.641-.168c-3.094-.813-6.372-3.2-9.744-7.108a75.826,75.826,0,0,1-8.668-12.962,158.832,158.832,0,0,1-11.362-26.525l-.224-.719.747-.094c5.72-.716,12.729,2.755,18.749,9.285a46.686,46.686,0,0,1,9.869,16.824,40.172,40.172,0,0,1,1.411,20.819Zm-28.977-46.395c4.368,13.6,16.395,40.893,28.014,44.815,2.755-14.544-3.885-28.023-11.107-35.859C497.145,2210.034,490.89,2206.74,485.712,2207.016Z" transform="translate(-484.049 -2205.741)" fill="#202020"/>
    </g>
    <g id="Group_1712" data-name="Group 1712" transform="translate(10.006 23.258)">
      <path id="Path_10486" data-name="Path 10486" d="M589.943,2308.9l-22.479-61.18,2.115,2.251c7.523,8,12.195,15.411,15.148,24.016,2.6,7.581,4.033,16.441,4.938,30.582Zm-19.122-55.7,17.278,47.023C586.487,2279.4,583.181,2267.223,570.82,2253.208Z" transform="translate(-567.464 -2247.725)" fill="#202020"/>
    </g>
    <path id="Path_10487" data-name="Path 10487" d="M720.923,2123.622c-3-4.2-12.139-20.686-7.269-41.743,2.935-12.686,9.891-20.532,17.535-21.881.9,9.891,1.5,15.784.862,29C731.526,2099.826,727.367,2114.873,720.923,2123.622Z" transform="translate(-684.877 -2059.259)" fill="#76b984"/>
    <path id="Path_10488" data-name="Path 10488" d="M714.452,2082.778c2.595-11.218,7.659-17.647,14.815-21.619-.049-.535,0-.6-.049-1.161-7.643,1.349-14.6,9.195-17.535,21.881-4.871,21.057,4.271,37.547,7.269,41.743.392-.532.312-.534.686-1.11C715.915,2116.026,710.283,2100.8,714.452,2082.778Z" transform="translate(-683.143 -2059.259)" fill="#fff"/>
    <g id="Group_1713" data-name="Group 1713" transform="translate(35.21 5.006)">
      <path id="Path_10489" data-name="Path 10489" d="M778.679,2170.719a254.624,254.624,0,0,1-.911-34.633c.4-10.845,1.614-25.918,5.106-36.138l1.5-4.383-4.438,75.121Zm3.823-64.858c-3.763,15.879-4.095,39.884-3.28,55.518Z" transform="translate(-777.57 -2095.565)" fill="#202020"/>
    </g>
    <g id="Group_1714" data-name="Group 1714" transform="translate(26.736)">
      <path id="Path_10490" data-name="Path 10490" d="M716.23,2119.27l-.5-.707a49.713,49.713,0,0,1-6.679-14.744,54.788,54.788,0,0,1-.691-27.507,37.727,37.727,0,0,1,7.129-15.451c3.143-3.814,6.916-6.2,10.91-6.908l.675-.119.154,1.688A167.7,167.7,0,0,1,728,2083.6c-.507,10.476-4.535,25.851-11.25,34.968Zm9.71-63.94c-7.471,1.713-13.7,9.778-16.358,21.266a53.542,53.542,0,0,0,.676,26.881,50.358,50.358,0,0,0,5.992,13.619c6.255-8.99,10-23.541,10.485-33.554a166.656,166.656,0,0,0-.768-27.906Z" transform="translate(-706.928 -2053.834)" fill="#202020"/>
    </g>
    <path id="Path_10491" data-name="Path 10491" d="M708.189,2670.708h-24.63a.951.951,0,0,0-.94,1.093l2.513,21.928a7.036,7.036,0,0,0,6.956,5.98h7.572a7.036,7.036,0,0,0,6.956-5.98l2.513-21.928A.951.951,0,0,0,708.189,2670.708Z" transform="translate(-658.79 -2596.71)" fill="#76b984"/>
    <path id="Path_10492" data-name="Path 10492" d="M686.8,2700.256l-2.513-21.928a.95.95,0,0,1,.94-1.093h-3.1a.951.951,0,0,0-.94,1.093l2.513,21.928a7.036,7.036,0,0,0,6.956,5.98h3.105A7.036,7.036,0,0,1,686.8,2700.256Z" transform="translate(-657.525 -2602.454)" fill="#fff"/>
    <g id="Group_1715" data-name="Group 1715" transform="translate(23.189 74.151)">
      <path id="Path_10493" data-name="Path 10493" d="M695.04,2702.245h-7.572a7.667,7.667,0,0,1-7.579-6.516l0-.022-2.512-21.918a1.58,1.58,0,0,1,1.564-1.8h24.63a1.58,1.58,0,0,1,1.564,1.8l-2.515,21.941a7.667,7.667,0,0,1-7.579,6.516Zm-13.9-6.694a6.369,6.369,0,0,0,6.332,5.434h7.572a6.369,6.369,0,0,0,6.332-5.434l2.515-21.939a.32.32,0,0,0-.317-.369H678.94a.32.32,0,0,0-.317.368l0,.023Zm20.86.083h0Z" transform="translate(-677.359 -2671.983)" fill="#202020"/>
    </g>
    <path id="Path_10494" data-name="Path 10494" d="M874.85,2360.815l-11.567,2.1-7.748,6.971-3.72,8.084-.87,6.757.235,1.87,7.429-2.78,7.246-6.356,5.18-6.854Z" transform="translate(-806.935 -2323.99)" fill="#76b984"/>
    <g id="Group_1716" data-name="Group 1716" transform="translate(42.101 37.189)">
      <path id="Path_10495" data-name="Path 10495" d="M835.019,2401.616l.015-2.411c.044-6.908.667-11.145,2.3-15.635a29.51,29.51,0,0,1,6.363-10.512,44.6,44.6,0,0,1,10.822-8.077l1.986-1.123Zm18.1-34.353c-7.835,4.776-12.008,9.608-14.6,16.738a38.421,38.421,0,0,0-2.179,12.75Z" transform="translate(-835.019 -2363.858)" fill="#202020"/>
    </g>
    <g id="Group_1717" data-name="Group 1717" transform="translate(43.382 35.93)">
      <path id="Path_10496" data-name="Path 10496" d="M845.8,2381.042l-.043-.675c-.559-8.841,2.7-16.889,8.946-22.079,4.981-4.141,11.132-5.813,16.452-4.471l.641.161-.192.632a47.3,47.3,0,0,1-9.638,16.417c-5.07,5.733-10.573,9.258-15.495,9.924Zm21.617-26.42a18.955,18.955,0,0,0-11.909,4.635c-5.768,4.794-8.855,12.176-8.53,20.336,4.452-.848,9.409-4.16,14.043-9.4a46.755,46.755,0,0,0,9.171-15.3A14.2,14.2,0,0,0,867.419,2354.622Z" transform="translate(-845.698 -2353.364)" fill="#202020"/>
    </g>
  </g>
  <g id="man" transform="translate(286.514 17.481)">
    <path id="Path_10497" data-name="Path 10497" d="M3130.471,952.682l-5.388,2.9s-1.5,13.621-1.421,20.764.727,28.546,3.229,34.22c.321,1.3.429,2.4,1.338,1.74s.753-.361,1.086-2.116,8.182-16.738,13.15-24.82,11.822-18.587,13.3-20.727,6.395-9.528,6.395-9.528l-7.732-3.785s-7.113,5.923-14.5,5.579S3130.471,952.682,3130.471,952.682Z" transform="translate(-3073.806 -885.425)" fill="#fefae9"/>
    <path id="Path_10498" data-name="Path 10498" d="M2806.116,551.327h41.048a3.009,3.009,0,0,1,3.009,3.009V680.142a3.009,3.009,0,0,1-3.009,3.009H2717.373a3.008,3.008,0,0,1-3.009-3.009V554.336a3.008,3.008,0,0,1,3.009-3.009h88.743Z" transform="translate(-2713.609 -533.409)" fill="#fff"/>
    <path id="Path_10499" data-name="Path 10499" d="M2884.614,985.934s-7.927,3.72-12.147,6.118-8.273,7.344-10.2,10.176-3.309,8.92-4.506,12.917-4.474,28.541-4.474,28.541l-2.487,21.37,1.071.565,103.92-.105.791-.842s-.7-19.423-2.052-28.647-3.4-21.178-7.064-27.883-15.047-18.787-25.68-22.209c-3.593-.259-23.188,13.044-23.188,13.044Z" transform="translate(-2833.678 -915.879)" fill="#fefae9"/>
    <g id="Group_1718" data-name="Group 1718" transform="translate(85.786 69.885)">
      <path id="Path_10500" data-name="Path 10500" d="M3459,1034.642c-1.354-9.225-3.4-21.178-7.064-27.883s-15.047-18.787-25.68-22.209c-1.037-.075-3.58,1.321-2.947,1.367a50.043,50.043,0,0,1,25.6,22.589c3.593,6.742,5.71,18.658,7.064,27.883,1.179,8.039,1.861,23.819,2.018,27.745l2.266,0,.791-.842S3460.352,1043.867,3459,1034.642Z" transform="translate(-3423.207 -984.548)" fill="#fff"/>
    </g>
    <path id="Path_10501" data-name="Path 10501" d="M3100.13,530.439c0,.306-.323,13.47.189,21.632s.778,11.918,2.067,15.486,3.356,4.409,4.925,4.409,3.906,1.786,3.906,1.786l-.36,6.519-.436,2.779s2.529,4.061,9.46,3.759,7.63-2.167,9.533-3.137a14.715,14.715,0,0,0,3.724-3.146s-1.551-11.766-1.707-14.575-.121-9.412-.121-9.412,3.652-.611,4.194-3.56,1.162-5.656-4.913-6.471c-4.493-5.151-4.85-13.224-4.748-14.6C3115.741,534.673,3100.13,530.439,3100.13,530.439Z" transform="translate(-3053.01 -515.027)" fill="#fff"/>
    <path id="Path_10502" data-name="Path 10502" d="M3080.576,442.582c7.347-6.582,6.332-20.623-.373-21.542-.736-12.856-16.156-12.129-25.872-8.265a57.548,57.548,0,0,1-10.64,2.87c-.795.132,1.233,2.683.57,3.054a24.864,24.864,0,0,1-5.5,2.414.318.318,0,0,0-.227.391,9.212,9.212,0,0,0,5.121,5.861c4.745,2.436,12.04,2.755,27.753-.964,0,0,1.225,11.473,5.287,14.841Z" transform="translate(-2998.88 -409.302)" fill="#202020"/>
    <g id="Group_1719" data-name="Group 1719" transform="translate(44.143 1.001)">
      <path id="Path_10503" data-name="Path 10503" d="M3112.753,421.041c-.736-12.856-16.156-12.129-25.872-8.265a57.537,57.537,0,0,1-10.64,2.87c-.332.055-.17.533.081,1.1a56.586,56.586,0,0,0,9.31-2.628c9.716-3.865,25.135-4.591,25.872,8.265,6.222.852,7.539,13,1.828,20.006C3120.447,435.725,3119.393,421.95,3112.753,421.041Z" transform="translate(-3076.054 -410.303)" fill="#fff"/>
    </g>
    <g id="Group_1720" data-name="Group 1720" transform="translate(45.847 18.209)">
      <path id="Path_10504" data-name="Path 10504" d="M3103.617,593.962c-4.554,0-7.718-1.343-9.658-4.094-2.072-2.939-2.449-7.2-2.545-10.582-.025-.35-.43-5.954-.75-11.694-.674-12.082-.336-12.969-.191-13.348a.756.756,0,0,1,1.414.535c-.441,1.351.4,15.69,1.037,24.414v.034c.133,4.718.833,7.731,2.27,9.77,1.722,2.443,4.688,3.569,9.072,3.444l.133,0a32.869,32.869,0,0,0,5.552-.607.756.756,0,1,1,.272,1.487,34.25,34.25,0,0,1-5.783.631l-.132,0Q3103.958,593.962,3103.617,593.962Z" transform="translate(-3090.259 -553.757)" fill="#202020"/>
    </g>
    <g id="Group_1721" data-name="Group 1721" transform="translate(74.906 31.186)">
      <path id="Path_10505" data-name="Path 10505" d="M3335.345,673.306a5.624,5.624,0,0,1-2.289-.483.756.756,0,1,1,.611-1.383,4.172,4.172,0,1,0-.082-7.6.756.756,0,0,1-.64-1.369,5.685,5.685,0,1,1,2.565,10.833Z" transform="translate(-3332.509 -661.938)" fill="#202020"/>
    </g>
    <path id="Path_10506" data-name="Path 10506" d="M3116.531,668.571c.029,1.036-.44,1.889-1.048,1.906s-1.123-.809-1.153-1.844.44-1.889,1.048-1.906S3116.5,667.535,3116.531,668.571Z" transform="translate(-3065.595 -634.965)" fill="#202020"/>
    <path id="Path_10507" data-name="Path 10507" d="M3245.029,664.972c.029,1.036.545,1.862,1.153,1.845s1.076-.87,1.047-1.906-.545-1.862-1.153-1.844S3245,663.936,3245.029,664.972Z" transform="translate(-3180.616 -631.744)" fill="#202020"/>
    <g id="Group_1722" data-name="Group 1722" transform="translate(61.074 25.947)">
      <path id="Path_10508" data-name="Path 10508" d="M3226.377,621.31a.752.752,0,0,1-.45-.149,8.3,8.3,0,0,0-7.692-.819.756.756,0,1,1-.566-1.4,9.878,9.878,0,0,1,9.16,1.006.756.756,0,0,1-.451,1.363Z" transform="translate(-3217.196 -618.257)" fill="#202020"/>
    </g>
    <g id="Group_1724" data-name="Group 1724" transform="translate(54.678 44.352)">
      <path id="Path_10509" data-name="Path 10509" d="M3175.676,784.219a3.912,3.912,0,0,0,3.188-2.841c.27-1.049.2-1.595-.3-1.816-.639-.281-2.046.314-4.228.96-1.593.471-4.008.592-4.012,1.75C3170.319,783.268,3172.7,784.983,3175.676,784.219Z" transform="translate(-3169.549 -778.554)" fill="#202020"/>
      <path id="Path_10510" data-name="Path 10510" d="M3198.792,796.472c-1.34-.9-5.446-.769-5.5,2.165C3195.32,798.715,3198.463,797.266,3198.792,796.472Z" transform="translate(-3189.762 -793.068)" fill="#fff"/>
      <g id="Group_1723" data-name="Group 1723">
        <path id="Path_10511" data-name="Path 10511" d="M3168.5,778.124a5.889,5.889,0,0,1-3.561-1.141,2.352,2.352,0,0,1-1.065-1.756c.005-1.475,1.754-1.846,3.3-2.174.454-.1.883-.187,1.257-.3.509-.15.984-.3,1.4-.434,1.618-.513,2.6-.822,3.344-.493,1.278.562.879,2.113.729,2.7a4.677,4.677,0,0,1-3.732,3.385h0A6.706,6.706,0,0,1,3168.5,778.124Zm-3.114-2.895a1.578,1.578,0,0,0,.671.7,4.689,4.689,0,0,0,3.738.52h0a3.194,3.194,0,0,0,2.644-2.3,2.247,2.247,0,0,0,.121-.938,8.237,8.237,0,0,0-2.273.552c-.425.135-.908.288-1.431.442-.431.128-.909.229-1.371.327C3166.855,774.667,3165.543,774.945,3165.39,775.229Zm7.193-2.01Z" transform="translate(-3163.878 -771.693)" fill="#202020"/>
      </g>
    </g>
    <g id="Group_1725" data-name="Group 1725" transform="translate(44.553 25.984)">
      <path id="Path_10512" data-name="Path 10512" d="M3090.493,634.861a3.055,3.055,0,0,1-2.07-.651,2.394,2.394,0,0,1-.786-1.777,4.341,4.341,0,0,1,1.464-2.871c.192-.219.373-.426.528-.625l.065-.085c.852-1.1,1.322-1.707,1.231-4.122A4.67,4.67,0,0,0,3087,620.2a7.246,7.246,0,0,0-6.261,1.956.756.756,0,0,1-1.013-1.122,8.723,8.723,0,0,1,7.554-2.32,6.212,6.212,0,0,1,5.161,5.96c.111,2.963-.62,3.908-1.546,5.1l-.065.084c-.182.236-.387.47-.586.7-.547.625-1.113,1.271-1.09,1.811a.877.877,0,0,0,.269.7,1.978,1.978,0,0,0,1.5.257.756.756,0,0,1,.143,1.5Q3090.766,634.861,3090.493,634.861Z" transform="translate(-3079.471 -618.57)" fill="#202020"/>
    </g>
    <g id="Group_1726" data-name="Group 1726" transform="translate(56.519 57.084)">
      <path id="Path_10513" data-name="Path 10513" d="M3179.982,889.2a.757.757,0,0,1-.739-.919,38.888,38.888,0,0,0,.455-9.657.756.756,0,0,1,1.509-.086,40.331,40.331,0,0,1-.488,10.069A.756.756,0,0,1,3179.982,889.2Z" transform="translate(-3179.225 -877.826)" fill="#202020"/>
    </g>
    <g id="Group_1727" data-name="Group 1727" transform="translate(77.221 40.808)">
      <path id="Path_10514" data-name="Path 10514" d="M3354.948,767.342a.756.756,0,0,1-.7-.47c-1.646-4.037-2.147-16.582-2.415-23.322l-.025-.613a.756.756,0,0,1,1.51-.06l.024.614c.246,6.174.758,19.02,2.3,22.811a.756.756,0,0,1-.7,1.042Z" transform="translate(-3351.808 -742.15)" fill="#202020"/>
    </g>
    <g id="Group_1728" data-name="Group 1728" transform="translate(50.319 64.57)">
      <path id="Path_10515" data-name="Path 10515" d="M3143.556,948.206a16.065,16.065,0,0,1-3.972-.491,10.827,10.827,0,0,1-5.83-3.911l-5.157,2.24a.756.756,0,1,1-.6-1.386l6.331-2.75.341.567a9.409,9.409,0,0,0,5.29,3.775c4.86,1.237,9.421-.341,12.392-1.883a25.671,25.671,0,0,0,5.413-3.746l.4-.385.487.266,7.65,4.186a.756.756,0,0,1-.725,1.326l-7.178-3.928a27.843,27.843,0,0,1-5.311,3.6A20.681,20.681,0,0,1,3143.556,948.206Z" transform="translate(-3127.54 -940.236)" fill="#202020"/>
    </g>
    <g id="Group_1729" data-name="Group 1729" transform="translate(31.721 96.603)">
      <path id="Path_10516" data-name="Path 10516" d="M2973.258,1261.173l-.05,0a.756.756,0,0,1-.705-.8c1.181-18.276,2.747-38.743,3.5-48.578.121-1.588.22-2.879.291-3.812a.756.756,0,1,1,1.507.114c-.07.934-.169,2.225-.291,3.814-.752,9.833-2.318,30.293-3.5,48.56A.756.756,0,0,1,2973.258,1261.173Z" transform="translate(-2972.501 -1207.278)" fill="#202020"/>
    </g>
    <g id="Group_1730" data-name="Group 1730" transform="translate(93.476 114.614)">
      <path id="Path_10517" data-name="Path 10517" d="M3489.881,1393.307a.756.756,0,0,1-.754-.716l-1.811-34.371a.756.756,0,0,1,1.51-.08l1.811,34.372a.756.756,0,0,1-.715.795Z" transform="translate(-3487.315 -1357.424)" fill="#202020"/>
    </g>
    <g id="Group_1731" data-name="Group 1731" transform="translate(15.841 68.461)">
      <path id="Path_10518" data-name="Path 10518" d="M2840.877,1054.708a.757.757,0,0,1-.75-.856c2.692-20.159,6.309-45.913,8.246-54.123a30.175,30.175,0,0,1,8.677-15.514c4.063-3.911,9.751-7.409,17.9-11.01l1.207-.534-.151,1.311c-.01.081-.935,8.242-1.1,19.243-.147,10.088.336,24.687,3.464,37.068,6.184-14.132,15.079-28.8,21.463-38.639,6.941-10.693,12.5-18.138,12.552-18.212l.375-.5.562.274c13.338,6.494,21.951,14.864,27.106,26.343,3.83,8.528,6.6,27.833,7.811,54.358a.756.756,0,1,1-1.51.069c-1.182-25.959-3.981-45.571-7.68-53.808-4.929-10.975-13.143-19.036-25.824-25.326-2.948,4.013-22.622,31.181-33.539,56.209a1.452,1.452,0,0,1-2.736-.223c-3.21-12.584-3.7-27.421-3.554-37.652.125-8.5.7-15.316.969-18.065-15.189,6.9-21.88,13.749-24.525,24.955-1.923,8.149-5.531,33.85-8.219,53.976A.756.756,0,0,1,2840.877,1054.708Z" transform="translate(-2840.121 -972.671)" fill="#202020"/>
    </g>
    <g id="Group_1732" data-name="Group 1732" transform="translate(0 17.162)">
      <path id="Path_10519" data-name="Path 10519" d="M2841.618,678.361H2711.827a3.769,3.769,0,0,1-3.764-3.765V561.567a.756.756,0,0,1,1.512,0V674.6a2.255,2.255,0,0,0,2.253,2.253h129.791a2.256,2.256,0,0,0,2.253-2.253V548.791a2.256,2.256,0,0,0-2.253-2.253H2800.57a.756.756,0,1,1,0-1.512h41.048a3.769,3.769,0,0,1,3.765,3.765V674.6A3.769,3.769,0,0,1,2841.618,678.361Z" transform="translate(-2708.063 -545.026)" fill="#202020"/>
    </g>
    <g id="Group_1733" data-name="Group 1733" transform="translate(38.884 0)">
      <path id="Path_10520" data-name="Path 10520" d="M3075.029,435.738a.756.756,0,0,1-.5-1.319c4.637-4.155,5.663-11.219,4.273-15.755-.465-1.518-1.635-4.117-4.245-4.475l-.617-.084-.035-.621c-.207-3.608-1.648-6.29-4.282-7.97-5.213-3.323-14.08-2.211-20.555.364a57.441,57.441,0,0,1-10.211,2.812c.071.168.156.351.22.488a8.116,8.116,0,0,1,.45,1.1c.263.924-.161,1.322-.438,1.477a26.447,26.447,0,0,1-5.241,2.36,8.447,8.447,0,0,0,4.609,4.975c2.458,1.262,5.447,1.815,9.4,1.743,4.47-.082,10.3-.988,17.83-2.769l.834-.2.091.853c.012.112,1.239,11.207,5.018,14.339a.756.756,0,1,1-.965,1.164c-3.63-3.009-5.074-11.716-5.451-14.495-14.087,3.271-22.072,3.47-27.452.708a9.9,9.9,0,0,1-5.5-6.328,1.06,1.06,0,0,1,.1-.817,1.085,1.085,0,0,1,.658-.51,22.877,22.877,0,0,0,5.027-2.175c-.081-.233-.236-.569-.341-.8-.378-.815-.676-1.459-.382-2.017a.961.961,0,0,1,.7-.5,57.28,57.28,0,0,0,10.485-2.826c6.833-2.718,16.263-3.844,21.927-.234a10.771,10.771,0,0,1,4.935,8.57c2.228.565,3.986,2.5,4.877,5.411,1.527,4.985.395,12.75-4.71,17.324A.752.752,0,0,1,3075.029,435.738Z" transform="translate(-3032.217 -401.957)" fill="#202020"/>
    </g>
  </g>
  <g id="icon" transform="translate(20.184 20.706)">
    <g id="Group_1736" data-name="Group 1736" transform="translate(127.238 37.646)">
      <g id="Group_1734" data-name="Group 1734" transform="translate(11.94 8.759)">
        <path id="Path_10521" data-name="Path 10521" d="M1663.055,841.976c-2.253,0-4.072-1.457-5.611-2.84-1.613-1.448-6.914-10.033-8.171-12.783s-1.53-5.348-.74-7.109c.582-1.3,2.686-2.677,3.888-3.384a1.155,1.155,0,0,1,1.567.379h0l3.129,4.931a1.165,1.165,0,0,1-.287,1.552l-.926.689a1.3,1.3,0,0,0-.469,1.443c.634,1.97,3.518,7.054,5.13,8.4a1.305,1.305,0,0,0,1.476.119c.326-.185.671-.375.9-.5a1.154,1.154,0,0,1,1.52.374l3.346,5.005a1.161,1.161,0,0,1-.15,1.471,7.327,7.327,0,0,1-4.235,2.243Q1663.238,841.976,1663.055,841.976Zm-10.078-24.981a9.117,9.117,0,0,0-3.294,2.765c-.642,1.43-.373,3.643.736,6.07,1.309,2.864,6.47,11.114,7.867,12.369,1.5,1.343,3.117,2.643,5.05,2.507a6.17,6.17,0,0,0,3.381-1.827l-3.249-4.861c-.223.122-.522.287-.8.448a2.57,2.57,0,0,1-2.906-.246c-1.932-1.612-4.888-7.011-5.522-8.979a2.562,2.562,0,0,1,.917-2.84l.852-.634Zm-.052-.081h0Z" transform="translate(-1648.088 -815.698)" fill="#fff"/>
      </g>
      <g id="Group_1735" data-name="Group 1735">
        <path id="Path_10522" data-name="Path 10522" d="M1570.446,786.48a21.891,21.891,0,1,1,18.516-10.2.63.63,0,0,1-1.064-.674,20.623,20.623,0,1,0-7.27,6.934.63.63,0,0,1,.622,1.1A21.9,21.9,0,0,1,1570.446,786.48Z" transform="translate(-1548.548 -742.683)" fill="#202020"/>
      </g>
    </g>
    <g id="Group_1737" data-name="Group 1737" transform="translate(198.035 125.719)">
      <path id="Path_10523" data-name="Path 10523" d="M2146.771,1511.451q-.849-3.325,2.084-4.075a2.881,2.881,0,0,1,2.406.3,3.686,3.686,0,0,1,1.4,2.272,3.619,3.619,0,0,1-.16,2.633,2.87,2.87,0,0,1-1.954,1.424,3.068,3.068,0,0,1-2.3-.233A3.426,3.426,0,0,1,2146.771,1511.451Zm2.4-8.349-2.567.656-7.865-25.572,5.061-1.294Z" transform="translate(-2138.738 -1476.893)" fill="#fbad2b"/>
    </g>
    <g id="Group_1743" data-name="Group 1743" transform="translate(182.722 77.782)">
      <path id="Path_10524" data-name="Path 10524" d="M2029.491,1082.521h-7.17a5.987,5.987,0,0,0-5.987,5.986v15.532a5.987,5.987,0,0,0,5.987,5.986h3.734l-3.212,13.366,16.092-13.366h41.394a5.986,5.986,0,0,0,5.987-5.986v-15.532a5.987,5.987,0,0,0-5.987-5.986h-50.838Z" transform="translate(-2015.705 -1081.891)" fill="#61aced"/>
      <g id="Group_1738" data-name="Group 1738" transform="translate(0.396 0.449)">
        <path id="Path_10525" data-name="Path 10525" d="M2017.12,1105.265v-17.446a4.073,4.073,0,0,1,4.073-4.073h59.922a5.952,5.952,0,0,1,2.636.618,5.981,5.981,0,0,0-5.369-3.351h-58.008a5.9,5.9,0,0,0-5.987,5.879v15.639a5.981,5.981,0,0,0,3.35,5.369A5.951,5.951,0,0,1,2017.12,1105.265Z" transform="translate(-2014.387 -1081.014)" fill="#fff"/>
      </g>
      <g id="Group_1739" data-name="Group 1739">
        <path id="Path_10526" data-name="Path 10526" d="M2018.6,1119.823a1.013,1.013,0,0,1-1.006-1.118l.013-.077,2.951-12.592H2017.7a6.624,6.624,0,0,1-6.616-6.616v-15.532a6.624,6.624,0,0,1,6.616-6.616h58.008a6.624,6.624,0,0,1,6.616,6.616v15.532a6.624,6.624,0,0,1-6.616,6.616h-41.156l-15.284,13.532A1,1,0,0,1,2018.6,1119.823Zm-.9-41.292a5.363,5.363,0,0,0-5.357,5.357v15.532a5.363,5.363,0,0,0,5.357,5.357h4.448l-3.122,13.324,15.049-13.324h41.633a5.363,5.363,0,0,0,5.357-5.357v-15.532a5.363,5.363,0,0,0-5.357-5.357Z" transform="translate(-2011.084 -1077.271)" fill="#202020"/>
      </g>
      <g id="Group_1740" data-name="Group 1740" transform="translate(10.747 10.302)">
        <rect id="Rectangle_88" data-name="Rectangle 88" width="50.676" height="1.26" fill="#202020"/>
      </g>
      <g id="Group_1741" data-name="Group 1741" transform="translate(10.747 17.121)">
        <rect id="Rectangle_89" data-name="Rectangle 89" width="24.132" height="1.26" fill="#202020"/>
      </g>
      <g id="Group_1742" data-name="Group 1742" transform="translate(40.447 17.121)">
        <rect id="Rectangle_90" data-name="Rectangle 90" width="20.975" height="1.26" fill="#202020"/>
      </g>
    </g>
    <g id="Group_1744" data-name="Group 1744" transform="translate(247.21 38.937)">
      <path id="Path_10527" data-name="Path 10527" d="M2549.639,763.646a.967.967,0,0,1-.963-.965V754.4a.963.963,0,0,1,1.445-.834l7.168,4.138a.964.964,0,0,1,0,1.669l-7.168,4.138A.961.961,0,0,1,2549.639,763.646Zm.051-9.153v8.1l7.014-4.049Z" transform="translate(-2548.676 -753.439)" fill="#46ba81"/>
    </g>
    <g id="Group_1745" data-name="Group 1745" transform="translate(58.4 132.72)">
      <path id="Path_10528" data-name="Path 10528" d="M977.821,1554.525l.364-.957a8.48,8.48,0,0,1,1.936-3.168,9.707,9.707,0,0,1,3.449-1.923,17.142,17.142,0,0,0,4.205-1.912,4.984,4.984,0,0,0,1.571-2.241,3.7,3.7,0,0,0-.1-3.234,5.375,5.375,0,0,0-2.966-2.253,12.222,12.222,0,0,0-2.852-.71,15.754,15.754,0,0,0-3.5.039l-.137-2.792a15.958,15.958,0,0,1,7.668.909,8.2,8.2,0,0,1,4.63,3.666,6.363,6.363,0,0,1,.092,5.41,7.3,7.3,0,0,1-1.212,2.146,7.191,7.191,0,0,1-1.725,1.474,26.212,26.212,0,0,1-3.981,1.721,11.686,11.686,0,0,0-3.329,1.634,5.8,5.8,0,0,0-1.6,2.476l-.222.585Zm-2.87,4.933q.916-2.41,3.044-1.6a2.155,2.155,0,0,1,1.349,1.224,2.766,2.766,0,0,1-.121,2,2.711,2.711,0,0,1-1.238,1.546,2.156,2.156,0,0,1-1.816.03,2.308,2.308,0,0,1-1.312-1.139A2.576,2.576,0,0,1,974.951,1559.458Z" transform="translate(-974.683 -1535.251)" fill="#00aeef"/>
    </g>
    <g id="Group_1750" data-name="Group 1750" transform="translate(0 45.332)">
      <g id="Group_1746" data-name="Group 1746" transform="translate(0 16.493)">
        <path id="Path_10529" data-name="Path 10529" d="M488.346,1005.4h-.025a.5.5,0,0,1-.479-.528,43.542,43.542,0,0,1,5.491-19.327.5.5,0,0,1,.876.5,42.528,42.528,0,0,0-5.36,18.878A.5.5,0,0,1,488.346,1005.4Zm38.308-10.721a.5.5,0,0,1-.288-.09,9.914,9.914,0,0,1-1.094-.885,19.733,19.733,0,0,1-6.5-14.95c0-.773.039-1.567.117-2.362a.5.5,0,0,1,1,.1c-.074.762-.112,1.524-.112,2.264a18.761,18.761,0,0,0,6.184,14.214,8.912,8.912,0,0,0,.982.795.5.5,0,0,1-.288.917Zm17.833-4.269a.5.5,0,0,1-.392-.82,12.98,12.98,0,0,0,2.99-8.178,13.842,13.842,0,0,0-1.266-5.66,19.217,19.217,0,0,0-2.366-3.973.5.5,0,1,1,.8-.619,20.217,20.217,0,0,1,2.491,4.181,14.843,14.843,0,0,1,1.353,6.071,13.975,13.975,0,0,1-3.213,8.81A.5.5,0,0,1,544.487,990.407Zm-37.106-18.591a.5.5,0,0,1-.283-.921,39.555,39.555,0,0,1,18.838-6.949.5.5,0,1,1,.073,1.005,38.535,38.535,0,0,0-18.345,6.778A.5.5,0,0,1,507.382,971.816Zm19.77-13.089a.5.5,0,0,1-.4-.806,54.906,54.906,0,0,1,14.827-13.6.5.5,0,0,1,.528.858,53.869,53.869,0,0,0-14.548,13.342A.5.5,0,0,1,527.152,958.727Z" transform="translate(-487.842 -944.249)" fill="#202020"/>
      </g>
      <g id="Group_1749" data-name="Group 1749" transform="translate(45.988)">
        <path id="Path_10530" data-name="Path 10530" d="M891.1,829.071l32.039-6.538L887.855,827Z" transform="translate(-885.859 -820.64)" fill="#fff"/>
        <g id="Group_1747" data-name="Group 1747">
          <path id="Path_10531" data-name="Path 10531" d="M885,835.908a.66.66,0,0,1-.177-.024.652.652,0,0,1-.475-.553v-.013l-1.335-14.255-11.5-8.318a.655.655,0,0,1,.285-1.2l35.285-4.788a.655.655,0,0,1,.607,1.045l-5.122,6.924a.5.5,0,0,1-.81-.6l4.63-6.258-33.591,4.558,10.916,7.894a.659.659,0,0,1,.29.47v.013l1.272,13.587,10.713-12.464a.5.5,0,0,1,.764.657L885.5,835.668A.652.652,0,0,1,885,835.908Zm-13.068-23.363-.012,0Z" transform="translate(-871.213 -806.754)" fill="#202020"/>
        </g>
        <g id="Group_1748" data-name="Group 1748" transform="translate(11.771 6.428)">
          <path id="Path_10532" data-name="Path 10532" d="M969.848,868.441a.5.5,0,0,1-.249-.942l12.5-7.091a.5.5,0,1,1,.5.877l-12.5,7.091A.5.5,0,0,1,969.848,868.441Z" transform="translate(-969.344 -860.342)" fill="#fff"/>
        </g>
      </g>
    </g>
    <g id="Group_1756" data-name="Group 1756" transform="translate(235.624 0)">
      <path id="Path_10533" data-name="Path 10533" d="M2502.117,434.1h5.649c2.6,0,4.716,2.424,4.716,5.415v14.05c0,2.991-2.112,5.415-4.716,5.415h-2.942l2.531,12.091-12.679-12.091h-32.615c-2.6,0-4.717-2.424-4.717-5.415v-14.05c0-2.991,2.112-5.415,4.717-5.415h40.056Z" transform="translate(-2456.715 -433.468)" fill="#76b984"/>
      <g id="Group_1751" data-name="Group 1751" transform="translate(1.301 0.466)">
        <path id="Path_10534" data-name="Path 10534" d="M2515.436,454.672V438.89a3.471,3.471,0,0,0-3.209-3.684h-47.213a4.2,4.2,0,0,0-2.077.559,4.7,4.7,0,0,1,4.23-3.031h45.7c2.605,0,4.717,2.328,4.717,5.318V452.2a5.529,5.529,0,0,1-2.64,4.857A6.047,6.047,0,0,0,2515.436,454.672Z" transform="translate(-2462.937 -432.734)" fill="#fff"/>
      </g>
      <g id="Group_1752" data-name="Group 1752">
        <path id="Path_10535" data-name="Path 10535" d="M2502.435,467.46a.9.9,0,0,1-.646-.276l-12-12.2H2457.44c-2.948,0-5.346-2.712-5.346-6.045v-14.05c0-3.333,2.4-6.045,5.346-6.045h45.7c2.948,0,5.347,2.712,5.347,6.045v14.05c0,3.333-2.4,6.045-5.347,6.045h-2.107l2.32,11.368,0,.034a.982.982,0,0,1-.548.985A.9.9,0,0,1,2502.435,467.46Zm-44.995-37.352c-2.253,0-4.087,2.147-4.087,4.785v14.05c0,2.639,1.833,4.786,4.087,4.786h32.879L2501.9,465.5l-2.4-11.769h3.65c2.254,0,4.088-2.147,4.088-4.786v-14.05c0-2.639-1.834-4.785-4.088-4.785Z" transform="translate(-2452.094 -428.848)" fill="#202020"/>
      </g>
      <g id="Group_1753" data-name="Group 1753" transform="translate(7.87 9.319)">
        <rect id="Rectangle_91" data-name="Rectangle 91" width="39.928" height="1.26" fill="#202020"/>
      </g>
      <g id="Group_1754" data-name="Group 1754" transform="translate(28.784 15.488)">
        <rect id="Rectangle_92" data-name="Rectangle 92" width="19.013" height="1.26" fill="#202020"/>
      </g>
      <g id="Group_1755" data-name="Group 1755" transform="translate(7.87 15.488)">
        <rect id="Rectangle_93" data-name="Rectangle 93" width="16.527" height="1.26" fill="#202020"/>
      </g>
    </g>
  </g>
  <g id="line" transform="translate(32.111 318.849)">
    <path id="Path_10536" data-name="Path 10536" d="M1000.053,2915.535H587.895a.63.63,0,1,1,0-1.26h412.158a.63.63,0,1,1,0,1.26Z" transform="translate(-587.265 -2914.275)" fill="#202020"/>
  </g>
  <g id="Group_1762" data-name="Group 1762" transform="translate(19.012)">
    <g id="Group_1759" data-name="Group 1759" transform="translate(0 0)">
      <path id="Path_10537" data-name="Path 10537" d="M484.854,1791.426h5.673l-1.034-6.872,4.825,4.171,3-4.438-6.786-2.726,6.786-2.968-3-4.465-4.825,4.2,1.034-6.9h-5.673l1.008,6.9-4.8-4.2-3,4.465,6.786,2.808-6.786,2.887,3,4.438,4.8-4.224Z" transform="translate(-478.068 -1589.669)" fill="#98288f"/>
      <g id="Group_1757" data-name="Group 1757" transform="translate(177.575 24.425)">
        <path id="Path_10538" data-name="Path 10538" d="M2501.861,2731.2a3.661,3.661,0,1,1,3.672-3.651,3.662,3.662,0,0,1-3.672,3.651m0,2.353a6.01,6.01,0,1,0-6-5.989,6.026,6.026,0,0,0,6,5.989" transform="translate(-2431.386 -2450.232)" fill="#00aeef"/>
        <path id="Path_10539" data-name="Path 10539" d="M1968.64,476.34a6.245,6.245,0,1,1,6.263-6.227,6.248,6.248,0,0,1-6.263,6.227m0,4.012a10.251,10.251,0,1,0-10.24-10.214,10.277,10.277,0,0,0,10.24,10.214" transform="translate(-1958.4 -459.849)" fill="#fbad2b"/>
      </g>
      <g id="Group_1758" data-name="Group 1758" transform="translate(455.739 137.309)">
        <path id="Path_10540" data-name="Path 10540" d="M4297.022,1410.638c-1.711.681-3.844.022-5.753-1.3.482-2.262,1.574-4.218,3.285-4.9a3.344,3.344,0,0,1,2.468,6.2m-12.01,4.782a3.344,3.344,0,0,1-2.468-6.2c1.711-.681,3.849-.011,5.754,1.3-.479,2.273-1.575,4.218-3.286,4.9m8.345-14.083a7.859,7.859,0,0,1-12.076,4.808,6.665,6.665,0,0,0,4.928,12.377,7.858,7.858,0,0,1,12.076-4.808,6.665,6.665,0,0,0-4.928-12.377" transform="translate(-4277.279 -1400.892)" fill="#46ba81"/>
      </g>
      <path id="Path_10541" data-name="Path 10541" d="M3416.7,259.944h-3.281v-3.713H3410.6v3.713h-3.291v2.813h3.291v3.722h2.813v-3.722h3.281Z" transform="translate(-3055.933 -256.231)" fill="#00aeef"/>
    </g>
    <path id="Path_10542" data-name="Path 10542" d="M666.547,674.423H661.5v-5.707h-4.323v5.707h-5.058v4.323h5.058v5.722H661.5v-5.722h5.045Z" transform="translate(-631.242 -619.236)" fill="#46ba81"/>
    <g id="Group_1760" data-name="Group 1760" transform="translate(430.313 76.549)">
      <path id="Path_10543" data-name="Path 10543" d="M4066.573,918.7c3.236,2.351,7.6.264,10.083-3.148,2.224-3.061,1.915-5.821-.127-7.3a4.282,4.282,0,0,0-6.045.943,3.673,3.673,0,0,0,.7,5.067,2.476,2.476,0,0,1-.629,1.37,3.717,3.717,0,0,1-5.18.792c-.185.255-.018,1.4,1.194,2.279m13.808-16.959a4.069,4.069,0,1,0-.915-5.683,4.095,4.095,0,0,0,.915,5.683" transform="translate(-4065.316 -894.375)" fill="#fbad2b"/>
    </g>
    <g id="Group_1761" data-name="Group 1761" transform="translate(103.32 4.948)">
      <path id="Path_10544" data-name="Path 10544" d="M1340.272,314.727c2.3,1.668,5.394.187,7.152-2.233,1.577-2.171,1.358-4.128-.09-5.18a3.037,3.037,0,0,0-4.288.669,2.605,2.605,0,0,0,.5,3.594,1.757,1.757,0,0,1-.446.972,2.636,2.636,0,0,1-3.674.562c-.132.181-.012.992.846,1.617m9.794-12.029a2.886,2.886,0,1,0-.649-4.031,2.9,2.9,0,0,0,.649,4.031" transform="translate(-1339.38 -297.476)" fill="#ca0288"/>
    </g>
  </g>
  <path id="Path_10545" data-name="Path 10545" d="M4386.976,2190.365l-10.507,9.178-1.755-1,10.513-9.175Z" transform="translate(-3888.274 -1957.48)" fill="#fbad2b"/>
  <path id="Path_10546" data-name="Path 10546" d="M331.841,2668.19l-10.507,9.178-1.756-1,10.512-9.175Z" transform="translate(-319.578 -2377.986)" fill="#fbad2b"/>
</svg>
