<svg xmlns="http://www.w3.org/2000/svg" width="244.771" height="238.083" viewBox="0 0 244.771 238.083">
  <g id="Group_1813" data-name="Group 1813" transform="translate(-1059.599 -13.78)">
    <g id="Group_1815" data-name="Group 1815">
      <g id="Component_9_1" data-name="Component 9 – 1" transform="translate(1059.599 13.78)">
        <path id="Path_10696" data-name="Path 10696" d="M847.1,49.268c.209,3.8-2.488,7.55-6.336,10.426-4.116-2.436-7.232-5.864-7.442-9.667a6.916,6.916,0,0,1,13.778-.759m1.469,26.7a6.916,6.916,0,0,1-13.778.757c-.209-3.8,2.512-7.55,6.336-10.424,4.14,2.434,7.232,5.864,7.442,9.667M826.452,50.333a17.147,17.147,0,0,0,7.842,13.029,17.139,17.139,0,0,0-6.365,13.81,13.783,13.783,0,0,0,27.508-1.513,17.142,17.142,0,0,0-7.843-13.029,17.136,17.136,0,0,0,6.366-13.81,13.783,13.783,0,0,0-27.508,1.513" transform="translate(-610.686 44.068)" fill="#46ba81"/>
        <path id="Path_10697" data-name="Path 10697" d="M486.674,1796.793h7.2l-1.312-8.715,6.12,5.29,3.8-5.63-8.607-3.458,8.607-3.765-3.8-5.664-6.12,5.324,1.312-8.749h-7.2l1.278,8.749-6.086-5.324-3.8,5.664,8.607,3.561-8.607,3.661,3.8,5.63,6.086-5.358Z" transform="translate(-352.645 -1755.368)" fill="#98288f"/>
        <g id="Group_1814" data-name="Group 1814" transform="translate(207.205)">
          <path id="Path_10543" data-name="Path 10543" d="M4066.911,925.221c4.1,2.982,9.646.335,12.789-3.993,2.821-3.883,2.429-7.382-.161-9.263a5.43,5.43,0,0,0-7.667,1.2,4.658,4.658,0,0,0,.892,6.426,3.137,3.137,0,0,1-.8,1.738,4.714,4.714,0,0,1-6.57,1c-.235.323-.022,1.775,1.514,2.891m17.513-21.51a5.161,5.161,0,1,0-1.16-7.208,5.193,5.193,0,0,0,1.16,7.208" transform="translate(-4065.316 -894.375)" fill="#fbad2b"/>
        </g>
        <path id="Path_10698" data-name="Path 10698" d="M4396.67,2191.15l-18.814,16.435-3.144-1.784,18.825-16.429Z" transform="translate(-4334.435 -2182.42)" fill="#fbad2b"/>
        <path id="Path_10699" data-name="Path 10699" d="M820.812,153.872l-.5-9-4.141.227.233,4.245-23.415,1.288-.233-4.245-4.141.228.494,9Z" transform="translate(-649.416 33.47)" fill="#46ba81"/>
        <path id="Path_10700" data-name="Path 10700" d="M672.909,54.428,693.85,81.055l-12.079-1.987-.951,6.108,24.328,4.157L708.3,66.562l-6.557-1.02L700.1,76.824,679.155,50.2Z" transform="translate(-672.909 15.066)" fill="#98288f"/>
        <path id="Path_10701" data-name="Path 10701" d="M823.814,164.832l.433,7.875-8.909.49.372,6.751,8.909-.491.435,7.9,6.749-.372-.435-7.9,8.933-.491-.372-6.751-8.931.491-.435-7.875Z" transform="translate(-599.061 50.728)" fill="#00aeef"/>
        <path id="Path_10702" data-name="Path 10702" d="M733.148,72.622l-.378-6.881,7.785-.428-.324-5.9-7.785.428-.38-6.9-5.9.324.38,6.9-7.806.428.324,5.9,7.806-.43.378,6.881Z" transform="translate(-646.571 16.644)" fill="#ec008c"/>
        <path id="Path_10703" data-name="Path 10703" d="M782.2,50.065a12.236,12.236,0,1,1-12.854-11.582A12.24,12.24,0,0,1,782.2,50.065m7.85-.431a20.084,20.084,0,1,0-18.88,21.129,20.136,20.136,0,0,0,18.88-21.129" transform="translate(-612.658 41.805)" fill="#fbad2b"/>
      </g>
    </g>
  </g>
</svg>
