<svg xmlns="http://www.w3.org/2000/svg" width="31.836" height="29.696" viewBox="0 0 31.836 29.696">
  <g id="Group_1807" data-name="Group 1807" transform="translate(-118.908 -268.78)">
    <path id="Path_10683" data-name="Path 10683" d="M126.226,279.5l2.045,2.052,7.215-7.225v16.92h2.958V274.373l7.222,7.223,2.042-2.052L136.945,268.78Z" transform="translate(-2.151 0)" fill="#72b380"/>
    <path id="Path_10684" data-name="Path 10684" d="M147.791,297.237h2.952v.4q0,2.822,0,5.645a3.371,3.371,0,0,1-3.559,3.562q-12.377,0-24.753,0a3.372,3.372,0,0,1-3.465-2.755,3.131,3.131,0,0,1-.054-.586q-.006-2.989,0-5.977c0-.084.01-.167.017-.275h2.936v.429q0,2.786,0,5.572c0,.554.09.64.644.64h24.642c.553,0,.642-.088.642-.642q0-2.785,0-5.571Z" transform="translate(0 -8.366)" fill="#72b380"/>
  </g>
</svg>
